{"glyphs":{":":{"x_min":0,"x_max":223,"ha":223,"o":"m 258 200 q 258 178 238 158 q 218 138 197 138 q 176 138 176 160 q 176 180 197 200 q 217 220 239 220 q 258 220 258 200 z m 170 57 q 170 35 150 15 q 130 -5 109 -5 q 88 -5 88 17 q 88 37 109 57 q 130 77 151 77 q 170 77 170 57 z"},"$":{"x_min":0,"x_max":478,"ha":478,"o":"m 602 375 q 602 338 568 313 q 534 288 484 288 q 419 288 419 335 q 419 354 439 377 q 458 401 474 401 q 478 401 478 398 q 478 396 476 396 q 427 374 427 336 q 427 297 471 297 q 503 297 536 328 q 569 359 569 390 q 569 443 495 443 q 439 443 394 407 q 348 372 348 329 q 348 304 384 271 q 412 250 440 228 q 496 184 496 134 q 496 70 433 24 q 370 -22 283 -22 q 272 -22 261 -21 l 163 -204 q 159 -212 154 -212 q 149 -212 149 -206 q 149 -202 153 -195 l 251 -19 q 136 0 136 82 q 136 125 186 164 q 235 202 291 202 q 297 202 298 200 q 298 197 287 195 q 241 186 210 152 q 179 119 179 78 q 179 34 207 9 q 234 -16 283 -16 q 349 -16 397 19 q 446 54 446 103 q 446 129 432 146 q 418 162 357 208 q 296 254 296 302 q 296 359 355 405 q 415 450 490 450 q 501 450 511 449 l 586 591 q 592 602 596 602 q 601 602 601 596 q 601 594 597 584 l 522 447 q 602 431 602 375 z"},"?":{"x_min":0,"x_max":436,"ha":436,"o":"m 612 444 q 612 367 519 309 q 485 288 355 238 q 221 187 221 132 q 221 107 247 107 q 291 107 330 164 q 332 167 334 167 q 336 167 336 164 q 336 156 308 130 q 275 100 247 100 q 214 100 214 131 q 214 157 245 185 q 260 198 272 206 q 291 218 356 254 q 562 369 562 479 q 562 560 466 570 q 470 551 470 533 q 470 447 401 368 q 332 290 256 290 q 224 290 202 311 q 181 332 181 363 q 181 442 267 509 q 354 575 457 575 q 432 635 374 635 q 354 635 336 628 q 332 626 331 626 q 329 627 328 629 q 328 633 344 637 q 360 642 374 642 q 437 642 464 575 q 529 570 571 534 q 612 497 612 444 z m 464 533 q 464 551 459 570 q 361 570 275 489 q 196 415 196 350 q 196 297 255 297 q 325 297 394 376 q 464 455 464 533 z m 233 57 q 233 35 213 15 q 193 -5 172 -5 q 151 -5 151 17 q 151 37 172 57 q 193 77 214 77 q 233 77 233 57 z"},"<":{"x_min":0,"x_max":523,"ha":523,"o":"m 688 444 l 680 423 l 202 245 l 560 63 l 545 51 l 179 237 l 187 258 z"},"'":{"x_min":0,"x_max":321,"ha":321,"o":"m 479 619 q 479 600 457 558 q 401 452 385 407 l 376 407 q 391 459 412 561 q 429 643 460 643 q 479 643 479 619 z"},"=":{"x_min":0,"x_max":523,"ha":523,"o":"m 653 298 q 651 289 623 289 l 211 289 q 194 289 196 298 q 198 307 226 307 l 636 307 q 655 307 653 298 z m 594 208 q 592 199 564 199 l 152 199 q 135 199 137 208 q 139 217 167 217 l 577 217 q 596 217 594 208 z"},"a":{"x_min":0,"x_max":344,"ha":344,"o":"m 434 153 q 434 143 363 58 q 305 -11 272 -11 q 250 -11 235 6 q 221 22 221 48 q 221 74 237 105 q 188 37 162 13 q 136 -11 112 -11 q 86 -11 68 11 q 51 33 51 67 q 51 161 183 233 q 241 265 277 265 q 307 265 307 236 q 307 228 303 214 l 328 261 q 343 258 354 258 q 367 258 388 261 l 302 118 q 257 43 257 19 q 257 -4 276 -4 q 295 -4 338 41 q 381 85 426 151 q 429 156 431 156 q 434 156 434 153 z m 300 234 q 300 258 278 258 q 233 258 160 170 q 87 82 87 28 q 87 -4 115 -4 q 149 -4 232 108 q 300 200 300 234 z"},"L":{"x_min":0,"x_max":759,"ha":759,"o":"m 1037 617 q 1037 583 952 484 q 867 385 786 326 q 725 192 660 131 q 595 69 485 41 q 679 -11 718 -19 q 756 -28 791 -28 q 842 -28 883 9 q 887 11 888 11 q 891 10 891 9 q 891 1 865 -17 q 817 -50 726 -50 q 659 -50 597 -37 q 535 -24 408 16 q 327 0 240 0 q 87 0 87 47 q 87 91 204 91 q 295 91 475 44 q 529 65 571 106 q 612 147 676 243 q 530 116 404 116 q 318 116 267 167 q 216 218 216 304 q 216 437 341 555 q 466 674 606 674 q 670 674 709 641 q 747 607 747 551 q 747 451 653 344 q 560 237 472 237 q 435 237 409 260 q 384 284 384 318 q 384 344 400 364 q 417 383 439 383 q 469 383 469 353 q 469 337 458 324 q 446 312 431 312 q 407 312 408 334 q 409 348 405 348 q 394 348 394 318 q 394 287 417 267 q 440 246 475 246 q 556 246 647 351 q 738 457 738 550 q 738 600 703 633 q 669 665 615 665 q 486 665 367 536 q 249 406 249 266 q 249 200 291 163 q 333 125 407 125 q 471 125 533 156 q 596 188 688 265 q 765 394 799 443 q 833 491 879 540 q 969 635 1017 635 q 1037 635 1037 617 z m 1029 617 q 1029 628 1017 628 q 981 628 918 554 q 862 488 793 341 q 876 409 953 498 q 1029 587 1029 617 z m 392 21 q 221 75 159 75 q 95 75 95 47 q 95 9 245 9 q 326 9 392 21 z"},"3":{"x_min":0,"x_max":478,"ha":478,"o":"m 603 438 q 603 322 402 287 q 520 260 520 167 q 520 97 439 43 q 359 -10 253 -10 q 186 -10 143 17 q 100 44 100 86 q 100 129 143 160 q 186 191 246 191 q 292 191 292 185 q 292 182 289 182 l 285 182 q 267 185 255 185 q 202 185 165 155 q 128 124 128 80 q 128 44 157 21 q 186 -2 232 -2 q 321 -2 396 62 q 471 125 471 201 q 471 264 394 284 q 352 278 325 278 q 300 278 300 284 q 300 294 336 294 q 364 294 394 289 q 468 314 512 361 q 556 408 556 463 q 556 525 477 525 q 409 525 340 478 q 272 431 272 383 q 272 339 328 339 q 362 339 404 366 q 447 393 471 430 q 474 435 477 435 q 479 435 479 433 q 479 428 460 407 q 442 387 426 374 q 374 333 326 333 q 297 333 279 350 q 261 367 261 393 q 261 442 331 487 q 400 531 478 531 q 535 531 569 506 q 603 480 603 438 z"},";":{"x_min":0,"x_max":223,"ha":223,"o":"m 248 204 q 248 182 228 162 q 208 142 187 142 q 166 142 166 163 q 166 184 187 204 q 207 224 229 224 q 248 224 248 204 z m 152 59 q 152 26 116 -13 q 103 -28 80 -42 q 57 -57 48 -57 q 45 -57 45 -54 q 45 -51 49 -50 q 69 -42 86 -29 q 102 -16 102 -6 q 102 -3 97 -3 q 75 -3 75 18 q 75 37 95 59 q 115 80 132 80 q 152 80 152 59 z"},"J":{"x_min":0,"x_max":563,"ha":563,"o":"m 939 677 q 939 669 900 651 q 859 633 811 620 q 727 550 669 468 q 611 385 541 234 l 553 234 q 636 234 692 295 q 720 325 731 375 q 733 383 737 383 q 741 383 741 378 q 741 323 681 275 q 622 226 554 226 q 544 226 537 227 q 534 221 508 167 q 447 42 405 -11 q 363 -65 297 -107 q 191 -174 80 -174 q 16 -174 -25 -145 q -66 -116 -66 -72 q -66 -47 -52 -30 q -38 -13 -18 -13 q 14 -13 14 -46 q 14 -85 -21 -85 q -46 -85 -48 -53 q -48 -51 -49 -50 q -57 -50 -57 -73 q -57 -112 -18 -138 q 21 -164 79 -164 q 204 -164 295 -62 q 331 -22 363 34 q 417 128 470 223 l 478 237 q 429 252 399 290 q 370 329 370 378 q 370 466 443 525 q 486 560 530 573 q 573 587 687 601 q 737 607 806 624 q 897 682 932 682 q 939 682 939 677 z m 797 616 q 764 608 707 595 q 615 575 567 555 q 520 535 480 501 q 396 429 396 350 q 396 273 482 244 q 628 509 797 616 z"},"V":{"x_min":0,"x_max":749,"ha":749,"o":"m 1506 695 q 1506 683 1492 683 l 1484 683 q 1457 686 1440 686 q 1314 686 1143 576 q 1061 523 1004 468 q 949 415 797 242 q 618 38 527 -28 q 479 -63 474 -63 q 471 -63 471 -60 q 471 -60 482 -45 q 568 67 630 220 q 692 374 692 476 q 692 641 558 641 q 505 641 437 605 q 368 569 311 511 q 250 448 213 371 q 176 293 176 226 q 176 166 208 130 q 241 95 297 95 q 405 95 508 234 q 581 333 581 411 q 581 446 564 467 q 546 488 517 488 q 500 488 484 480 q 468 473 468 465 q 468 462 471 462 l 475 462 q 489 464 490 464 q 512 464 512 440 q 512 425 500 414 q 489 403 473 403 q 443 403 443 434 q 443 459 465 478 q 487 497 517 497 q 550 497 570 474 q 590 451 590 413 q 590 317 495 203 q 398 87 296 87 q 231 87 191 132 q 150 177 150 248 q 150 384 286 516 q 422 649 561 649 q 644 649 695 592 q 746 534 746 441 q 746 341 690 231 q 634 122 509 -24 q 504 -30 504 -31 l 505 -32 q 513 -32 566 13 q 606 47 650 95 q 689 137 856 327 q 955 439 1030 504 q 1105 569 1198 622 q 1350 709 1466 709 q 1506 709 1506 695 z"},"\"":{"x_min":0,"x_max":478,"ha":478,"o":"m 598 620 q 598 605 591 589 q 585 575 543 494 q 515 438 504 407 l 496 407 q 503 431 532 561 q 549 643 579 643 q 598 643 598 620 z m 516 619 q 516 600 494 558 q 438 452 422 407 l 413 407 q 428 459 449 561 q 466 643 497 643 q 516 643 516 619 z"},"7":{"x_min":0,"x_max":478,"ha":478,"o":"m 640 549 q 640 526 616 487 q 597 455 578 434 q 556 409 477 332 q 281 140 273 -2 q 250 3 228 3 q 208 3 190 -2 q 207 93 278 178 q 348 264 507 384 q 592 448 619 505 q 584 453 513 453 q 477 453 417 475 q 357 497 340 497 q 325 497 311 489 l 308 483 q 270 407 253 407 q 247 407 247 413 q 247 438 304 489 q 315 511 315 527 q 315 533 312 543 l 312 545 q 312 551 318 551 q 324 551 324 541 q 324 523 313 496 q 352 528 392 528 q 416 528 490 503 q 532 489 559 489 q 627 489 627 537 q 627 541 626 546 l 626 549 q 626 557 633 557 q 640 557 640 549 z"},"S":{"x_min":0,"x_max":707,"ha":707,"o":"m 994 638 q 994 615 947 571 q 900 526 832 486 q 823 458 806 385 q 779 270 756 222 q 733 174 680 124 q 528 -20 339 -20 q 285 -20 243 -2 q 220 -47 220 -80 q 220 -122 248 -157 q 251 -160 251 -164 q 251 -168 246 -168 q 235 -168 222 -138 q 209 -107 209 -81 q 209 -43 234 3 q 132 56 132 184 q 132 267 181 348 q 229 430 318 495 q 431 578 541 578 q 601 578 636 544 q 672 511 672 453 q 672 422 663 389 q 735 437 790 470 q 825 547 878 602 q 932 657 971 657 q 994 657 994 638 z m 985 637 q 985 649 971 649 q 938 649 898 604 q 858 559 836 498 q 900 538 943 577 q 985 617 985 637 z m 646 367 l 614 345 q 430 218 348 134 q 369 123 392 123 q 460 123 535 195 q 610 267 646 367 z m 784 457 q 727 421 659 375 q 627 271 546 193 q 465 115 391 115 q 369 115 342 127 q 287 70 248 7 q 288 -11 339 -11 q 431 -11 517 41 q 603 93 664 185 q 693 228 709 265 q 726 302 763 404 q 772 429 784 457 z m 663 455 q 663 506 631 538 q 598 569 545 569 q 414 569 291 432 q 168 295 168 149 q 168 53 239 12 q 272 67 334 132 q 302 160 302 198 q 302 228 320 248 q 339 269 365 269 q 398 269 398 239 q 398 223 386 212 q 374 200 357 200 q 333 200 333 223 q 333 230 338 239 q 340 245 340 246 q 340 249 337 249 q 329 249 320 231 q 311 214 311 197 q 311 165 341 139 q 439 243 651 381 q 663 424 663 455 z"},"}":{"x_min":0,"x_max":439,"ha":439,"o":"m 509 639 q 509 615 494 587 q 479 558 406 440 q 364 373 364 350 q 364 333 379 322 q 394 310 414 310 q 425 311 425 305 q 425 300 412 298 q 363 292 342 271 q 321 251 291 184 q 241 73 222 41 q 171 -44 109 -64 q 77 -74 -10 -74 q -26 -74 -26 -68 q -26 -62 5 -62 q 71 -62 107 -29 q 144 5 192 110 q 248 231 285 265 q 322 299 403 304 q 315 318 315 372 q 315 401 359 467 q 388 509 416 551 q 457 616 457 645 q 457 696 393 695 q 381 695 381 699 q 381 707 406 707 q 509 707 509 639 z"},"Z":{"x_min":0,"x_max":653,"ha":653,"o":"m 995 610 q 995 584 923 520 q 865 468 802 450 q 797 442 764 380 q 706 268 632 208 q 557 148 441 120 q 523 116 572 77 q 621 39 621 -22 q 621 -138 485 -235 q 357 -326 245 -326 q 182 -326 141 -297 q 99 -267 99 -223 q 99 -198 113 -181 q 127 -164 148 -164 q 179 -164 179 -196 q 179 -212 169 -224 q 158 -236 144 -236 q 133 -236 125 -228 q 116 -221 117 -212 l 118 -205 l 118 -203 q 118 -201 116 -201 q 108 -201 108 -225 q 108 -264 146 -290 q 184 -316 241 -316 q 350 -316 458 -214 q 568 -110 568 -13 q 568 104 430 114 q 376 95 339 95 q 324 95 324 102 q 324 109 350 115 q 376 121 411 121 l 427 121 q 499 152 555 202 q 612 252 695 356 q 743 417 772 449 q 707 451 677 482 q 647 513 645 581 q 642 665 557 665 q 435 665 310 536 q 184 408 184 283 q 184 228 217 194 q 249 160 303 160 q 398 160 494 262 q 590 364 590 465 q 590 500 571 522 q 553 543 522 543 q 458 543 385 455 q 311 367 311 291 q 311 244 356 238 q 362 238 362 234 q 362 230 356 230 q 328 230 308 255 q 288 279 288 313 q 288 392 365 472 q 442 552 518 552 q 556 552 577 529 q 599 505 599 464 q 599 358 500 254 q 401 150 301 150 q 238 150 199 193 q 161 235 161 306 q 161 432 292 549 q 431 674 564 674 q 648 674 684 618 q 696 599 700 585 q 702 574 710 520 q 719 455 777 456 q 924 626 978 626 q 995 626 995 610 z m 984 607 q 984 616 974 616 q 952 616 904 572 q 857 528 808 462 q 883 485 954 562 q 984 595 984 607 z"},"x":{"x_min":0,"x_max":348,"ha":348,"o":"m 438 153 q 438 153 436 149 l 430 141 q 366 56 331 23 q 294 -11 265 -11 q 236 -11 214 11 q 192 34 192 64 q 192 77 199 101 q 133 -11 83 -11 q 67 -11 57 1 q 46 13 46 30 q 46 55 64 77 q 82 98 103 98 q 129 98 129 73 q 129 45 89 34 q 67 28 67 12 q 67 -3 85 -3 q 121 -3 168 63 q 242 167 242 228 q 242 258 215 258 q 168 258 96 157 q 88 146 85 146 q 83 147 83 149 q 83 158 131 211 q 180 265 218 265 q 247 265 266 245 q 285 225 285 195 q 285 180 278 162 q 345 265 394 265 q 431 265 431 225 q 431 201 415 181 q 399 160 380 160 q 356 160 356 185 q 356 208 391 219 q 413 226 413 242 q 413 258 393 258 q 352 258 292 174 q 233 91 233 33 q 233 -4 268 -4 q 319 -4 425 145 q 433 156 435 156 q 438 156 438 153 z"},")":{"x_min":0,"x_max":439,"ha":439,"o":"m 462 497 q 462 392 438 316 q 413 240 356 166 q 290 81 209 28 q 128 -25 10 -60 q -74 -85 -92 -85 q -97 -85 -97 -81 q -97 -77 -85 -75 q 107 -40 264 152 q 422 344 422 542 q 422 642 363 696 q 359 699 359 702 q 359 705 363 705 q 367 705 382 690 q 462 611 462 497 z"},"&":{"x_min":0,"x_max":889,"ha":889,"o":"m 997 223 q 997 137 942 77 q 887 17 808 17 q 777 17 734 33 q 657 -17 565 -17 q 488 -17 427 18 q 366 53 338 112 q 272 134 235 183 q 198 231 198 296 q 198 410 300 489 q 402 567 551 567 q 634 567 718 541 q 755 584 793 613 q 832 642 852 642 q 869 642 869 626 q 869 597 771 521 q 875 475 936 394 q 997 313 997 223 z m 860 626 q 860 634 852 634 q 836 634 799 605 q 762 576 728 538 l 732 536 l 742 533 l 755 527 l 761 525 q 799 551 830 582 q 860 613 860 626 z m 753 519 q 737 525 722 530 q 703 506 685 477 q 711 490 753 519 z m 973 243 q 973 329 918 400 q 864 471 763 515 q 729 490 678 462 q 656 419 642 365 q 669 370 690 370 q 719 370 744 362 q 763 399 768 433 q 770 447 777 447 q 783 447 783 439 q 783 417 756 358 q 844 320 844 220 q 844 114 743 39 q 769 29 796 29 q 869 29 921 92 q 973 155 973 243 z m 741 355 q 714 362 690 362 q 667 362 640 355 q 626 303 626 233 q 626 216 627 203 q 701 271 741 355 z m 827 233 q 827 315 752 351 q 705 259 628 192 q 634 129 674 85 q 740 125 741 180 q 741 194 751 194 q 762 194 762 182 q 762 161 737 129 q 712 97 681 79 q 688 72 710 55 l 715 52 q 766 90 797 139 q 827 188 827 233 z m 712 534 q 643 556 574 556 q 437 556 332 471 q 227 385 227 274 q 227 168 332 125 q 321 155 321 185 q 321 302 469 386 q 508 408 669 469 q 685 497 712 534 z m 660 452 q 643 443 608 426 q 365 303 365 147 q 365 133 369 114 q 399 111 409 111 q 441 111 480 121 q 465 149 465 177 q 465 235 509 286 q 553 336 622 359 q 633 396 660 452 z m 619 348 q 561 322 525 274 q 489 226 489 173 q 489 151 498 127 q 558 146 607 186 q 601 216 601 239 q 601 287 619 348 z m 664 80 q 623 126 609 177 q 559 139 503 118 q 532 66 605 66 q 633 66 664 80 z m 707 46 q 682 62 671 74 q 633 57 598 57 q 528 57 486 113 q 444 101 410 101 q 395 101 372 104 q 392 55 442 24 q 493 -6 555 -6 q 630 -6 707 46 z"},"_":{"x_min":0,"x_max":500,"ha":500,"o":"m 546 -104 l 46 -104 l 46 -83 l 546 -83 z"},"v":{"x_min":0,"x_max":273,"ha":273,"o":"m 364 154 q 364 148 333 116 q 291 72 259 72 q 237 72 223 95 q 180 35 152 12 q 125 -11 97 -11 q 72 -11 55 6 q 38 23 38 48 q 38 77 71 132 l 148 261 q 172 259 180 259 q 198 259 209 261 l 107 96 q 73 41 73 19 q 73 -4 99 -4 q 123 -4 148 18 q 173 40 220 101 q 216 116 216 127 q 216 171 243 218 q 271 265 296 265 q 308 265 308 251 q 308 214 227 100 q 237 78 259 78 q 296 78 349 144 q 359 156 362 156 q 364 156 364 154 z"},"O":{"x_min":0,"x_max":793,"ha":793,"o":"m 907 390 q 907 315 865 238 q 823 161 749 98 q 678 38 596 2 q 514 -33 446 -33 q 356 -33 300 28 q 244 89 244 187 q 244 277 300 370 q 355 463 450 531 q 518 580 602 610 q 686 640 754 640 q 821 640 862 607 q 902 575 902 520 q 902 498 894 467 q 907 428 907 390 z m 894 519 q 894 568 859 599 q 825 629 768 629 q 656 629 541 554 q 431 482 361 370 q 287 254 287 140 q 287 68 330 22 q 373 -23 440 -23 q 577 -23 715 118 q 853 258 868 412 q 852 383 809 343 q 766 303 751 303 q 747 303 747 307 q 747 310 755 314 q 834 358 869 430 q 869 491 833 527 q 798 563 737 563 q 624 563 504 442 q 385 321 385 206 q 385 160 406 132 q 428 103 463 103 q 479 103 497 113 q 514 123 514 132 q 514 135 512 135 q 512 135 508 133 q 502 127 489 127 q 466 127 466 154 q 466 170 477 182 q 488 193 504 193 q 535 193 535 158 q 535 132 513 113 q 491 94 461 94 q 419 94 391 129 q 363 163 363 215 q 363 334 487 452 q 611 571 736 571 q 789 571 831 546 q 873 521 888 480 q 894 500 894 519 z"},"(":{"x_min":0,"x_max":439,"ha":439,"o":"m 854 704 q 854 700 836 697 q 637 665 476 476 q 315 287 315 85 q 315 -10 375 -69 q 378 -72 378 -74 q 377 -77 375 -77 q 369 -77 344 -48 q 275 31 275 153 q 275 289 365 425 q 456 561 593 632 q 644 658 727 683 q 811 708 847 708 q 854 708 854 704 z"},"C":{"x_min":0,"x_max":797,"ha":797,"o":"m 936 542 q 936 510 892 476 q 932 417 932 367 q 932 355 925 355 q 919 355 919 371 q 919 420 885 470 q 814 417 692 379 q 570 341 476 341 q 463 341 453 342 q 375 233 375 132 q 375 63 418 23 q 460 -17 534 -17 q 673 -17 782 116 q 848 197 848 269 q 848 307 825 330 q 802 352 764 352 q 703 352 633 288 q 563 224 563 168 q 563 163 566 163 q 568 164 570 165 q 583 177 594 177 q 619 177 619 150 q 619 114 584 114 q 552 114 552 153 q 552 223 623 291 q 693 360 766 360 q 860 360 860 257 q 860 150 758 63 q 656 -25 532 -25 q 446 -25 387 33 q 328 91 328 177 q 328 260 386 347 q 175 386 175 514 q 175 590 253 642 q 332 693 449 693 q 613 693 780 584 q 809 590 839 590 q 936 590 936 542 z m 928 542 q 928 582 850 582 q 826 582 792 575 q 850 535 888 482 q 928 516 928 542 z m 881 477 q 843 531 780 573 q 688 548 602 488 q 515 427 459 349 q 561 349 685 386 q 809 424 881 477 z m 766 582 q 618 668 450 668 q 347 668 269 619 q 192 570 192 505 q 192 388 390 354 q 513 525 766 582 z"},"W":{"x_min":0,"x_max":924,"ha":924,"o":"m 1692 740 q 1692 728 1677 728 l 1670 728 q 1655 730 1632 730 q 1520 730 1361 629 q 1271 571 1209 511 q 1146 449 997 267 q 816 48 715 -27 q 681 -52 676 -52 q 673 -52 673 -50 q 673 -49 687 -35 q 749 28 815 210 q 874 373 908 447 q 943 522 982 572 q 991 583 991 585 q 988 586 984 581 l 979 576 l 967 561 q 935 521 818 367 q 633 117 493 7 q 418 -52 406 -52 q 403 -51 403 -49 q 403 -47 409 -42 q 505 45 593 220 q 680 396 680 500 q 680 571 646 613 q 611 655 551 655 q 424 655 300 514 q 175 373 175 229 q 175 169 207 133 q 240 96 292 96 q 402 96 501 247 q 565 345 565 422 q 565 458 547 480 q 529 502 500 502 q 482 502 466 493 q 449 485 449 476 q 449 473 452 473 q 454 473 457 474 q 469 476 473 476 q 495 476 495 451 q 495 436 483 425 q 472 414 456 414 q 426 414 426 447 q 426 473 448 492 q 471 511 500 511 q 534 511 554 487 q 574 462 574 422 q 574 330 490 215 q 397 88 291 88 q 229 88 190 135 q 150 182 150 254 q 150 321 186 395 q 222 468 284 528 q 424 664 553 664 q 629 664 680 604 q 732 545 732 458 q 732 365 655 232 q 578 99 468 3 q 457 -7 457 -8 q 458 -10 459 -10 q 474 -10 556 75 q 672 196 870 456 q 927 531 981 590 q 1036 649 1049 649 q 1052 649 1052 646 q 1052 645 1049 641 q 1018 600 999 558 q 978 509 934 376 q 886 230 847 154 q 806 76 744 12 q 743 10 742 9 q 743 7 744 7 q 752 7 814 71 q 857 115 1054 354 q 1156 478 1237 549 q 1317 621 1418 677 q 1555 754 1657 754 q 1692 754 1692 740 z"},"A":{"x_min":0,"x_max":908,"ha":908,"o":"m 872 496 q 872 491 854 470 q 804 413 760 413 q 731 413 714 433 q 696 453 696 485 q 696 512 728 573 q 743 602 743 620 q 743 645 716 662 q 689 679 650 679 q 538 679 443 593 q 347 507 347 407 q 347 356 379 324 q 411 292 462 292 q 517 292 573 332 q 629 373 652 429 q 653 434 656 434 q 660 434 660 429 q 660 419 643 393 q 626 367 608 349 q 542 284 460 284 q 404 284 371 318 q 337 353 337 409 q 337 512 436 600 q 536 688 652 688 q 703 688 732 663 q 761 637 761 593 q 761 560 738 514 q 717 473 717 458 q 717 422 760 422 q 809 422 861 494 q 865 500 868 500 q 872 500 872 496 z m 1395 585 q 1395 576 1385 576 q 1380 576 1352 582 q 1300 593 1265 593 q 1187 569 1126 500 q 1066 431 989 277 q 871 40 686 -3 q 725 -9 753 -9 q 843 -9 904 49 q 963 104 1002 167 q 1006 174 1009 174 q 1012 174 1012 172 q 1012 165 956 96 q 904 32 861 8 q 818 -16 756 -16 q 720 -16 669 -6 q 638 -16 597 -16 q 569 -16 569 -6 q 569 6 607 6 q 634 6 669 1 q 745 19 783 61 q 822 102 933 285 l 745 285 q 625 159 560 106 q 407 -18 272 -18 q 195 -18 141 18 q 87 54 87 106 q 87 133 103 152 q 120 171 143 171 q 175 171 175 140 q 175 124 164 113 q 153 101 138 101 q 115 101 115 123 l 116 133 q 117 135 117 138 q 117 143 113 143 q 108 143 103 131 q 98 119 98 106 q 98 58 148 25 q 199 -8 272 -8 q 377 -8 503 95 q 532 118 567 156 q 637 229 678 270 l 693 285 l 598 285 l 604 294 q 651 294 700 293 q 843 452 978 526 q 1112 599 1262 600 q 1297 607 1327 607 q 1395 607 1395 585 z m 1240 591 q 1113 584 1004 518 q 895 451 753 293 l 938 293 q 1000 402 1089 488 q 1176 574 1240 591 z"},"f":{"x_min":0,"x_max":133,"ha":133,"o":"m 422 503 q 422 459 360 394 q 299 328 199 265 l 283 265 l 279 258 l 194 258 l 154 180 q 80 36 28 -37 q -24 -110 -93 -167 q -187 -245 -268 -245 q -304 -245 -304 -235 q -304 -230 -299 -230 q -295 -230 -293 -231 q -275 -236 -260 -236 q -194 -236 -127 -177 q -86 -141 -55 -92 q -30 -53 65 121 l 140 258 l 88 258 l 92 265 l 145 265 q 208 371 283 448 q 359 526 400 526 q 422 526 422 503 z m 416 504 q 416 520 400 520 q 363 520 299 435 q 267 392 203 275 q 283 331 350 402 q 416 473 416 504 z"},"Q":{"x_min":0,"x_max":702,"ha":702,"o":"m 835 450 q 835 370 789 287 q 744 205 664 142 q 572 69 434 28 q 594 -20 639 -31 q 682 -42 712 -42 q 757 -42 793 -9 q 794 -8 797 -7 q 800 -8 800 -11 q 800 -19 776 -34 q 733 -61 655 -61 q 581 -61 534 -52 q 471 -39 368 4 l 356 9 q 292 -6 216 -6 q 76 -6 76 39 q 76 77 184 77 q 277 77 422 32 q 579 82 684 213 q 789 345 789 489 q 789 564 750 606 q 711 648 641 648 q 498 648 361 514 q 225 379 225 237 q 225 177 260 142 q 294 108 355 108 q 480 108 578 228 q 660 329 660 423 q 660 462 640 488 q 620 513 588 513 q 572 513 554 504 q 536 494 536 486 q 537 484 539 484 q 540 484 547 488 q 552 491 560 491 q 584 491 584 465 q 584 449 573 438 q 562 426 547 426 q 516 426 516 459 q 516 485 537 504 q 558 522 587 522 q 629 522 656 486 q 683 451 683 395 q 683 283 582 191 q 481 99 357 99 q 279 99 233 145 q 188 191 188 270 q 188 434 357 556 q 499 658 642 658 q 728 658 781 601 q 835 543 835 450 z m 342 14 q 194 62 142 62 q 85 62 85 39 q 85 3 217 3 q 293 3 342 14 z"},"w":{"x_min":0,"x_max":424,"ha":424,"o":"m 515 154 q 515 148 484 116 q 442 72 410 72 q 389 72 374 95 q 331 35 303 12 q 276 -11 248 -11 q 223 -11 207 6 q 190 22 190 47 q 190 67 203 96 q 130 -11 88 -11 q 67 -11 52 6 q 38 23 38 47 q 38 75 67 124 l 148 261 q 167 258 177 258 q 185 258 209 261 l 98 80 q 72 38 72 18 q 72 -4 92 -4 q 114 -4 157 45 q 201 94 244 167 l 299 261 q 325 259 332 259 q 349 259 360 261 l 258 96 q 224 41 224 20 q 224 -4 249 -4 q 299 -4 370 101 q 367 119 367 128 q 367 171 394 218 q 421 265 447 265 q 458 265 458 250 q 458 209 378 100 q 390 78 410 78 q 447 78 500 144 q 510 156 513 156 q 515 156 515 154 z"},"-":{"x_min":0,"x_max":358,"ha":358,"o":"m 358 133 q 358 127 318 115 q 278 102 257 102 q 237 102 216 107 q 190 113 178 113 q 158 113 139 103 q 138 102 136 102 q 134 103 134 104 q 134 110 172 123 q 209 136 227 136 q 237 136 269 129 q 296 123 308 123 q 331 123 351 133 q 354 135 356 135 q 358 135 358 133 z"},"E":{"x_min":0,"x_max":841,"ha":841,"o":"m 1037 547 q 1037 514 977 514 q 930 514 752 558 q 669 511 669 439 q 669 404 693 391 q 728 394 745 394 q 796 394 796 382 q 796 374 769 374 q 735 374 695 384 q 641 376 569 342 q 386 254 386 115 q 386 23 486 -2 q 468 28 468 67 q 468 163 566 244 q 664 325 781 325 q 834 325 866 299 q 898 272 898 228 q 898 133 793 56 q 689 -20 558 -20 q 532 -20 509 -17 q 556 -80 648 -80 q 705 -80 741 -63 l 747 -62 q 750 -63 750 -66 q 750 -73 714 -80 q 678 -88 648 -88 q 546 -88 492 -14 q 417 2 375 42 q 333 82 333 135 q 333 206 392 267 q 450 329 548 361 q 607 380 683 389 q 629 412 629 462 q 629 526 708 569 q 595 596 521 596 q 376 596 275 524 q 173 452 173 349 q 173 303 200 271 q 227 238 264 238 q 290 238 290 246 q 290 250 281 249 q 255 249 255 273 q 255 287 266 296 q 278 306 294 306 q 325 306 325 276 q 325 256 307 242 q 290 228 264 228 q 219 228 187 269 q 155 310 155 367 q 155 454 230 526 q 319 612 481 612 q 571 612 720 575 q 788 608 877 608 q 943 608 990 590 q 1037 572 1037 547 z m 1027 548 q 1027 567 987 582 q 946 596 894 596 q 822 596 763 565 q 893 523 981 523 q 1027 523 1027 548 z m 889 232 q 889 267 861 290 q 833 313 791 313 q 686 313 586 226 q 486 139 486 48 q 486 21 502 -6 q 530 -11 554 -11 q 669 -11 779 69 q 889 148 889 232 z"},"s":{"x_min":0,"x_max":195,"ha":195,"o":"m 256 343 q 256 323 195 265 q 192 250 192 239 q 192 210 218 149 q 231 118 231 97 q 231 53 188 21 q 146 -11 87 -11 q 54 -11 34 8 q 14 26 14 58 q 14 95 40 129 q 66 164 94 164 q 99 164 103 162 l 142 210 q 160 231 189 268 q 197 302 214 327 q 231 351 248 351 q 256 351 256 343 z m 188 150 q 188 165 187 179 q 186 193 186 220 q 186 242 188 257 q 161 222 109 159 q 118 151 118 140 q 118 111 71 101 q 52 97 38 80 q 24 64 24 46 q 24 26 38 13 q 52 0 73 0 q 114 0 151 48 q 188 95 188 150 z"},">":{"x_min":0,"x_max":523,"ha":523,"o":"m 622 260 l 614 239 l 113 53 l 121 74 l 599 252 l 241 434 l 256 446 z"},"l":{"x_min":0,"x_max":160,"ha":160,"o":"m 347 499 q 142 158 108 98 q 74 38 74 18 q 74 -4 93 -4 q 134 -4 243 151 q 246 156 249 156 q 251 155 251 153 q 251 150 246 145 l 225 116 q 133 -11 89 -11 q 68 -11 54 5 q 41 21 41 45 q 41 72 53 97 q 66 122 138 242 q 227 389 287 497 q 302 493 313 493 q 332 493 347 499 z"},"8":{"x_min":0,"x_max":478,"ha":478,"o":"m 648 454 q 648 368 441 307 q 487 264 502 237 q 518 211 518 178 q 518 105 444 48 q 370 -10 276 -10 q 208 -10 167 21 q 125 51 125 101 q 125 160 183 204 q 241 248 381 295 q 332 343 332 385 q 332 442 395 489 q 458 536 535 536 q 583 536 615 512 q 648 489 648 454 z m 615 469 q 615 495 592 512 q 569 530 535 530 q 474 530 426 494 q 379 458 379 411 q 379 384 399 356 q 407 345 438 311 q 519 339 567 382 q 615 425 615 469 z m 468 147 q 468 188 441 226 q 434 237 384 291 q 163 210 163 84 q 163 -4 275 -4 q 354 -4 411 41 q 468 85 468 147 z"},"\\":{"x_min":0,"x_max":529,"ha":529,"o":"m 463 -101 l 450 -101 l 416 726 l 429 726 z"},"e":{"x_min":0,"x_max":246,"ha":246,"o":"m 337 153 q 337 151 328 140 l 307 114 q 206 -11 134 -11 q 100 -11 76 13 q 53 38 53 75 q 53 163 176 230 q 240 265 281 265 q 298 265 311 255 q 323 244 323 229 q 323 194 277 169 q 231 145 124 123 q 91 73 91 39 q 91 -3 136 -3 q 213 -3 325 148 q 331 156 335 156 q 337 155 337 153 z m 296 243 q 296 259 279 259 q 253 259 211 223 q 168 187 128 130 q 198 148 247 181 q 296 214 296 243 z"},"b":{"x_min":0,"x_max":263,"ha":263,"o":"m 353 493 l 134 147 q 185 217 210 241 q 236 265 259 265 q 286 265 303 243 q 321 221 321 187 q 321 113 227 42 q 157 -11 103 -11 q 78 -11 62 8 q 46 27 46 58 q 46 95 93 170 l 295 494 q 308 490 323 490 q 335 490 353 493 z m 285 225 q 285 258 258 258 q 222 258 136 140 q 72 52 72 22 q 72 -4 97 -4 q 141 -4 213 84 q 285 171 285 225 z"},"%":{"x_min":0,"x_max":535,"ha":535,"o":"m 599 503 q 599 500 594 494 q 494 387 306 48 q 287 53 269 53 q 267 53 241 51 q 392 260 551 453 l 565 470 q 532 437 463 398 q 419 374 391 333 q 337 256 286 256 q 264 256 249 271 q 235 286 235 310 q 235 354 288 405 q 341 456 388 456 q 425 456 425 416 q 425 391 404 357 q 436 398 492 430 q 553 465 589 501 q 594 506 596 506 q 599 505 599 503 z m 412 423 q 412 449 391 449 q 358 449 312 389 q 265 329 265 287 q 265 263 286 263 q 321 263 366 321 q 412 379 412 423 z m 614 235 q 614 187 565 131 q 517 75 475 75 q 453 75 438 90 q 424 104 424 128 q 424 173 477 224 q 530 275 577 275 q 614 275 614 235 z m 601 242 q 601 268 580 268 q 547 268 501 208 q 454 148 454 107 q 454 82 475 82 q 510 82 555 140 q 601 198 601 242 z"},"m":{"x_min":0,"x_max":544,"ha":544,"o":"m 634 153 q 633 151 629 145 l 608 116 q 516 -11 472 -11 q 449 -11 435 6 q 420 23 420 50 q 420 77 438 109 q 442 115 474 161 q 515 220 515 238 q 515 258 495 258 q 431 258 274 -7 q 264 -5 247 -5 q 227 -5 213 -7 l 282 103 q 350 211 350 236 q 350 258 332 258 q 305 258 244 181 q 183 104 123 -7 q 112 -5 94 -5 q 75 -5 61 -7 l 131 103 q 203 216 203 243 q 203 258 192 258 q 168 258 93 153 q 88 146 85 146 q 83 146 83 149 q 83 153 128 210 q 172 265 196 265 q 211 265 223 250 q 234 235 234 215 q 234 187 205 136 q 293 265 336 265 q 356 265 370 249 q 383 232 383 207 q 383 179 357 136 q 450 265 496 265 q 517 265 531 247 q 546 229 546 203 q 546 173 522 132 q 521 132 480 70 q 456 35 456 16 q 456 -4 476 -4 q 514 -4 602 119 l 617 140 l 626 151 q 628 156 631 156 q 634 156 634 153 z"},"#":{"x_min":0,"x_max":478,"ha":478,"o":"m 639 320 q 636 311 611 311 l 496 311 l 444 200 l 540 200 q 562 200 559 190 q 556 181 531 181 l 436 181 q 393 88 366 32 q 355 10 347 13 q 339 16 347 34 q 363 70 415 181 l 284 181 q 259 125 214 32 q 204 10 195 13 q 187 16 195 34 q 211 70 263 181 l 144 181 q 127 181 131 192 q 134 200 152 200 l 272 200 l 324 311 l 224 311 q 208 311 211 322 q 214 330 232 330 l 333 330 q 358 385 401 476 q 410 496 419 493 q 429 490 420 472 q 399 429 353 330 l 484 330 q 510 385 553 476 q 562 496 571 493 q 581 490 572 472 q 551 429 505 330 l 620 330 q 642 330 639 320 z m 476 311 l 344 311 q 327 274 293 200 l 424 200 z"},",":{"x_min":0,"x_max":223,"ha":223,"o":"m 151 59 q 151 26 115 -13 q 101 -28 79 -42 q 56 -57 47 -57 q 44 -57 44 -54 q 44 -51 48 -50 q 68 -42 85 -29 q 101 -16 101 -6 q 101 -3 96 -3 q 74 -3 74 18 q 74 37 94 59 q 114 80 131 80 q 151 80 151 59 z"},"n":{"x_min":0,"x_max":391,"ha":391,"o":"m 482 153 q 482 143 411 58 q 353 -11 320 -11 q 298 -11 283 6 q 268 23 268 48 q 268 70 277 89 q 286 107 324 163 q 364 222 364 238 q 364 258 343 258 q 271 258 123 -7 q 99 -5 94 -5 q 77 -5 62 -7 l 138 114 q 203 217 203 243 q 203 258 191 258 q 166 258 93 153 q 88 146 86 146 q 83 146 83 149 q 83 151 85 153 l 94 165 q 169 265 195 265 q 211 265 223 250 q 235 235 235 214 q 235 183 198 127 q 256 207 287 236 q 318 265 344 265 q 366 265 380 248 q 395 230 395 204 q 395 171 350 104 q 304 35 304 16 q 304 -4 324 -4 q 368 -4 474 151 q 477 156 479 156 q 482 156 482 153 z"},"h":{"x_min":0,"x_max":313,"ha":313,"o":"m 403 154 q 403 150 398 145 l 377 116 q 285 -11 240 -11 q 217 -11 202 6 q 187 22 187 48 q 187 82 224 137 q 282 223 282 239 q 282 258 262 258 q 233 258 182 200 q 133 145 48 -9 q 33 -6 23 -6 q 12 -6 -6 -9 l 66 121 q 81 149 111 203 q 127 229 210 371 l 284 497 q 299 494 309 494 q 329 494 346 499 q 295 417 195 255 q 192 250 119 129 q 211 265 264 265 q 285 265 300 247 q 315 229 315 203 q 315 169 272 106 q 224 35 224 17 q 224 -4 245 -4 q 283 -4 371 119 l 386 140 l 395 151 q 397 156 401 156 q 403 156 403 154 z"},"z":{"x_min":0,"x_max":279,"ha":279,"o":"m 384 260 q 384 244 339 218 q 289 176 170 86 q 154 75 129 55 l 143 56 q 167 58 185 40 q 203 22 208 -5 q 236 11 285 61 q 334 110 359 147 q 365 156 368 156 q 370 156 370 154 q 370 144 317 85 q 262 24 209 -13 l 209 -26 q 209 -80 170 -142 q 132 -204 75 -241 q -49 -323 -123 -323 q -180 -323 -180 -277 q -180 -223 -102 -164 q -62 -133 108 -59 q 141 -44 170 -28 q 178 -5 178 13 q 178 50 139 50 q 128 50 122 49 l 115 43 l 97 26 q 51 -17 38 -17 q 26 -17 26 -6 q 26 25 116 53 q 252 156 324 214 l 314 207 q 287 188 264 188 q 248 188 223 209 q 200 228 185 228 q 155 228 94 152 q 88 146 86 146 q 84 146 84 149 q 84 157 129 205 q 184 263 221 263 q 236 263 286 231 q 303 220 317 220 q 324 220 332 224 l 338 232 l 354 252 q 365 266 376 266 q 384 266 384 260 z m 167 -36 q 155 -42 28 -102 q -66 -146 -120 -193 q -174 -240 -174 -279 q -174 -317 -124 -317 q -54 -317 37 -229 q 128 -142 167 -36 z"},"B":{"x_min":0,"x_max":929,"ha":929,"o":"m 1215 508 q 1215 482 1208 452 q 1201 422 1195 422 q 1190 422 1190 427 q 1190 428 1191 431 q 1204 465 1204 505 q 1204 566 1167 604 q 1131 641 1071 641 q 990 641 905 588 q 973 537 973 469 q 973 360 825 340 q 947 297 947 184 q 947 100 875 37 q 804 -26 708 -26 q 662 -26 635 -2 q 608 21 608 62 q 608 125 665 186 q 723 247 781 247 q 813 247 833 227 q 854 207 854 175 q 854 156 842 127 q 831 99 823 99 q 818 99 818 103 q 818 105 820 109 q 845 146 845 176 q 845 204 827 221 q 809 238 780 238 q 725 238 672 180 q 619 122 619 61 q 619 29 641 7 q 663 -14 696 -14 q 771 -14 833 58 q 895 131 895 218 q 895 299 817 337 l 789 333 q 777 332 765 332 q 728 332 728 344 q 728 353 759 353 q 781 353 817 344 q 868 360 897 399 q 927 438 927 489 q 927 538 889 577 q 782 495 688 299 q 630 178 582 124 q 535 72 448 29 q 346 -21 266 -21 q 201 -21 157 9 q 114 39 114 84 q 114 109 129 127 q 144 145 164 145 q 194 145 194 112 q 194 95 184 83 q 174 72 159 72 q 134 72 135 98 q 135 109 133 109 q 125 109 125 83 q 125 42 165 16 q 205 -11 265 -11 q 372 -11 459 68 q 497 102 524 139 q 552 177 652 329 q 700 402 768 477 q 836 552 882 584 q 805 649 658 649 q 452 649 300 500 q 175 378 175 270 q 175 215 210 183 q 245 151 305 151 q 403 151 508 245 q 613 339 613 428 q 613 499 540 499 q 467 499 384 418 q 301 337 301 266 q 301 249 312 236 q 324 223 340 223 q 348 222 348 219 q 348 215 339 215 q 315 215 299 236 q 283 257 283 288 q 283 364 367 436 q 450 508 538 508 q 622 508 622 430 q 622 335 515 239 q 408 142 304 142 q 236 142 196 183 q 155 224 155 292 q 155 430 311 544 q 467 658 656 658 q 798 658 897 594 q 986 650 1070 650 q 1135 650 1175 611 q 1215 572 1215 508 z"},"K":{"x_min":0,"x_max":881,"ha":881,"o":"m 1375 541 q 1375 455 1263 401 q 1231 386 1222 386 q 1218 386 1218 389 q 1218 393 1222 394 q 1281 411 1321 452 q 1360 494 1360 540 q 1360 579 1332 604 q 1305 628 1260 628 q 1202 628 1148 595 q 1095 562 1018 479 q 885 334 765 323 q 810 297 810 233 q 810 203 786 111 q 775 69 775 50 q 775 15 797 -8 q 818 -30 853 -30 q 883 -30 907 -11 q 913 -6 915 -6 q 918 -6 918 -9 q 918 -18 894 -29 q 870 -39 850 -39 q 802 -39 768 2 q 733 42 733 98 q 733 134 761 215 q 775 255 775 278 q 775 305 756 323 q 738 321 726 321 q 690 321 690 330 q 690 337 710 337 q 730 337 754 328 q 804 337 845 365 q 884 393 961 470 q 1050 560 1121 599 q 1191 638 1262 638 q 1311 638 1343 611 q 1375 583 1375 541 z m 733 513 q 733 502 704 472 q 660 426 621 426 q 593 426 575 446 q 556 465 556 494 q 556 520 577 561 q 602 610 602 630 q 602 655 578 670 q 554 685 516 685 q 408 685 312 597 q 216 510 216 410 q 216 359 247 326 q 278 294 328 294 q 373 294 418 319 q 464 344 491 384 q 493 386 494 386 q 498 386 498 382 q 498 372 467 344 q 402 286 327 286 q 274 286 240 320 q 207 354 207 409 q 207 515 305 604 q 403 693 520 693 q 622 693 622 603 q 622 572 590 508 q 579 486 579 472 q 579 435 619 435 q 648 435 681 462 q 707 484 725 514 q 727 517 729 517 q 733 517 733 513 z m 902 584 q 902 581 892 577 q 829 551 782 490 q 735 428 643 255 q 600 174 559 129 q 519 85 451 44 q 339 -24 240 -24 q 172 -24 129 4 q 87 33 87 78 q 87 104 102 121 q 116 138 138 138 q 170 138 170 106 q 170 90 160 79 q 149 68 135 68 q 111 68 111 94 q 111 104 107 104 q 99 104 99 77 q 99 37 137 11 q 175 -14 237 -14 q 343 -14 432 64 q 477 104 506 142 q 535 181 615 309 q 718 474 809 541 q 827 554 859 571 q 891 588 898 588 q 902 588 902 584 z"},"R":{"x_min":0,"x_max":925,"ha":925,"o":"m 1215 508 q 1215 482 1208 452 q 1201 422 1195 422 q 1190 422 1190 427 q 1190 428 1191 431 q 1204 465 1204 505 q 1204 566 1167 604 q 1131 641 1071 641 q 988 641 904 588 q 976 530 976 463 q 976 406 930 365 q 885 325 810 316 q 861 287 861 231 q 861 194 835 118 q 818 68 818 40 q 818 11 839 -10 q 860 -30 890 -30 q 921 -30 949 -9 q 956 -5 958 -5 q 962 -5 962 -9 q 962 -17 935 -28 q 907 -39 887 -39 q 840 -39 809 -2 q 777 36 777 91 q 777 131 812 232 q 821 258 821 276 q 821 299 802 315 q 771 312 766 312 q 718 312 718 324 q 718 332 742 332 q 771 332 800 321 q 858 330 895 375 q 932 419 932 480 q 932 528 895 572 l 890 578 q 783 498 688 299 q 630 178 583 125 q 535 72 448 29 q 346 -21 266 -21 q 201 -21 157 9 q 114 39 114 84 q 114 109 129 127 q 144 145 164 145 q 194 145 194 112 q 194 95 184 83 q 174 72 159 72 q 134 72 135 98 q 135 109 133 109 q 125 109 125 83 q 125 42 165 16 q 205 -11 265 -11 q 372 -11 459 68 q 497 103 524 139 q 553 178 652 328 q 701 402 768 477 q 835 552 882 584 q 806 649 658 649 q 452 649 300 500 q 175 378 175 270 q 175 215 210 183 q 245 151 305 151 q 403 151 508 245 q 613 339 613 428 q 613 499 540 499 q 467 499 384 418 q 301 336 301 265 q 301 248 312 235 q 324 222 340 222 q 348 222 348 218 q 348 214 339 214 q 315 214 299 235 q 283 256 283 287 q 283 363 367 436 q 450 508 538 508 q 622 508 622 430 q 622 335 515 239 q 408 142 304 142 q 236 142 196 183 q 155 224 155 292 q 155 430 311 544 q 467 658 656 658 q 799 658 897 594 q 986 650 1070 650 q 1135 650 1175 611 q 1215 572 1215 508 z"},"T":{"x_min":0,"x_max":587,"ha":587,"o":"m 1236 599 q 1236 573 1183 554 q 1130 536 1054 536 q 978 536 864 557 q 804 526 754 465 q 704 403 647 291 q 590 179 563 141 q 537 104 490 69 q 368 -22 236 -22 q 166 -22 121 8 q 76 38 76 85 q 76 109 90 126 q 104 143 124 143 q 156 143 156 110 q 156 94 146 83 q 136 72 122 72 q 99 72 99 94 q 99 106 95 106 q 87 106 87 82 q 87 42 128 15 q 168 -12 228 -12 q 359 -12 463 106 q 512 161 589 288 q 715 494 852 559 q 826 563 773 575 q 649 602 583 602 q 576 602 542 600 q 565 557 565 502 q 565 395 483 300 q 402 206 309 206 q 271 206 246 232 q 222 257 222 298 q 222 354 264 421 q 307 489 374 539 q 441 590 521 610 q 482 662 411 662 q 351 662 290 627 q 229 592 182 532 q 175 523 173 523 q 170 523 169 526 q 169 534 209 574 q 305 670 410 670 q 492 670 534 613 q 593 630 670 630 q 709 630 742 625 q 777 620 912 592 q 1025 641 1129 641 q 1236 641 1236 599 z m 1228 598 q 1228 612 1200 622 q 1173 632 1131 632 q 1026 632 928 588 q 940 586 993 576 q 1071 561 1132 561 q 1171 561 1200 572 q 1228 583 1228 598 z m 546 526 q 546 565 528 598 q 418 580 324 485 q 230 391 230 299 q 230 264 252 240 q 273 216 305 216 q 388 216 467 318 q 546 419 546 526 z"},"P":{"x_min":0,"x_max":769,"ha":769,"o":"m 1215 508 q 1215 482 1208 452 q 1201 422 1195 422 q 1190 422 1190 427 q 1190 428 1191 431 q 1204 465 1204 505 q 1204 566 1167 604 q 1131 641 1071 641 q 990 641 904 588 q 977 529 977 455 q 977 393 927 346 q 876 300 809 300 q 783 300 752 310 q 722 321 722 330 q 723 333 726 333 q 729 333 734 330 q 764 313 795 313 q 851 313 890 361 q 930 409 930 475 q 930 532 889 577 q 783 498 688 299 q 630 178 583 125 q 535 72 448 29 q 346 -21 266 -21 q 201 -21 157 9 q 114 39 114 84 q 114 109 129 127 q 144 145 164 145 q 194 145 194 112 q 194 95 184 83 q 174 72 159 72 q 134 72 135 98 q 135 109 133 109 q 125 109 125 83 q 125 42 165 16 q 205 -11 265 -11 q 372 -11 459 68 q 497 103 524 139 q 553 178 652 328 q 701 402 768 477 q 835 552 882 584 q 806 649 658 649 q 452 649 300 500 q 175 378 175 270 q 175 215 210 183 q 245 151 305 151 q 403 151 508 245 q 613 339 613 428 q 613 499 540 499 q 467 499 384 418 q 301 336 301 265 q 301 248 312 235 q 324 222 340 222 q 348 222 348 218 q 348 214 339 214 q 315 214 299 235 q 283 256 283 287 q 283 363 367 436 q 450 508 538 508 q 622 508 622 430 q 622 335 515 239 q 408 142 304 142 q 236 142 196 183 q 155 224 155 292 q 155 430 311 544 q 467 658 656 658 q 799 658 897 594 q 986 650 1070 650 q 1135 650 1175 611 q 1215 572 1215 508 z"},"|":{"x_min":0,"x_max":500,"ha":500,"o":"m 419 -167 l 400 -167 l 400 667 l 419 667 z"},"t":{"x_min":0,"x_max":165,"ha":165,"o":"m 271 265 l 267 258 l 203 258 l 94 72 q 74 38 74 18 q 74 -4 97 -4 q 142 -4 247 151 q 250 156 253 156 q 256 156 256 153 q 255 151 251 145 l 230 116 q 138 -11 92 -11 q 69 -11 53 5 q 38 22 38 47 q 38 76 64 120 l 146 258 l 96 258 l 101 265 l 150 265 l 207 360 q 222 356 235 356 q 249 356 263 360 l 207 265 z"},"M":{"x_min":0,"x_max":978,"ha":978,"o":"m 1269 620 q 1269 618 1256 611 q 1199 581 1155 523 q 1112 466 1056 348 q 975 176 911 101 q 848 26 754 -7 q 797 -13 821 -13 q 896 -13 941 19 q 986 51 1069 162 q 1074 169 1077 169 q 1079 168 1079 166 q 1079 161 1033 103 q 977 32 933 6 q 889 -20 824 -20 q 784 -20 738 -11 q 705 -22 671 -22 q 645 -22 645 -12 q 645 0 681 0 q 701 0 734 -5 l 740 -5 q 792 14 828 54 q 864 94 914 190 q 1016 384 1076 464 q 1133 542 1214 596 q 1254 623 1266 623 q 1269 623 1269 620 z m 1504 488 q 1504 469 1500 451 q 1496 433 1491 433 q 1488 433 1488 436 q 1488 438 1489 440 q 1496 457 1496 486 q 1496 551 1444 596 q 1393 641 1318 641 q 1197 641 1071 523 q 1021 477 985 433 q 950 391 849 257 q 700 59 604 10 q 561 -12 549 -12 q 546 -12 546 -9 q 546 -8 556 -1 q 604 35 632 95 q 659 150 727 356 q 785 532 860 608 q 863 611 863 613 q 856 615 834 592 q 761 520 663 332 q 603 217 557 157 q 511 98 448 53 q 345 -21 240 -21 q 172 -21 130 8 q 87 36 87 81 q 87 106 102 124 q 116 141 138 141 q 170 141 170 110 q 170 94 160 82 q 149 71 135 71 q 111 71 111 97 q 111 107 107 107 q 99 107 99 80 q 99 40 139 14 q 179 -11 241 -11 q 369 -11 491 121 q 541 174 575 225 q 609 275 711 445 q 754 517 808 575 q 862 634 885 634 q 888 634 888 631 q 888 629 886 627 q 841 577 804 439 q 750 236 701 144 q 653 54 578 8 q 576 7 576 6 q 577 5 578 5 q 589 5 633 36 q 686 73 730 125 q 774 177 891 337 q 974 450 1022 503 q 1071 555 1130 595 q 1222 657 1316 657 q 1398 657 1451 609 q 1504 562 1504 488 z m 730 515 q 730 504 702 473 q 660 426 621 426 q 594 426 576 446 q 557 465 557 494 q 557 522 577 561 q 602 610 602 630 q 602 655 579 670 q 555 685 517 685 q 408 685 312 597 q 217 509 217 410 q 217 359 248 326 q 280 294 329 294 q 373 294 418 319 q 463 344 491 384 q 493 386 494 386 q 498 386 498 382 q 498 372 467 344 q 402 286 327 286 q 274 286 241 320 q 208 354 208 409 q 208 515 306 604 q 404 693 520 693 q 568 693 595 669 q 622 645 622 603 q 622 572 591 508 q 580 485 580 472 q 580 435 620 435 q 644 435 674 458 q 703 481 721 514 q 724 519 726 519 q 730 519 730 515 z"},"g":{"x_min":0,"x_max":335,"ha":335,"o":"m 425 153 q 425 145 372 86 q 313 21 219 -31 l 195 -75 q 128 -198 46 -264 q -33 -328 -91 -328 q -112 -328 -125 -315 q -139 -303 -139 -284 q -139 -184 87 -81 q 136 -59 150 -51 l 233 102 q 179 30 156 10 q 134 -11 111 -11 q 85 -11 68 11 q 50 34 50 66 q 50 150 160 219 q 234 265 276 265 q 305 265 305 233 q 305 224 301 212 l 328 261 q 341 258 351 258 q 364 258 388 261 q 385 257 345 188 l 224 -21 q 288 15 326 49 q 365 83 413 146 q 420 156 423 156 q 425 155 425 153 z m 300 233 q 300 258 276 258 q 232 258 159 170 q 87 83 87 29 q 87 -4 115 -4 q 144 -4 213 83 q 300 193 300 233 z m 145 -59 q 136 -64 90 -87 q -133 -197 -133 -285 q -133 -300 -122 -311 q -110 -321 -93 -321 q -39 -321 12 -266 q 62 -211 139 -69 q 139 -69 145 -59 z"},"j":{"x_min":0,"x_max":151,"ha":151,"o":"m 256 354 q 256 337 241 323 q 227 309 210 309 q 190 309 190 330 q 190 346 204 360 q 219 375 235 375 q 256 375 256 354 z m 242 154 q 242 146 188 86 q 132 23 36 -31 l 11 -74 q -64 -204 -138 -264 q -216 -328 -272 -328 q -322 -328 -322 -282 q -322 -226 -246 -167 q -205 -135 -176 -118 q -131 -93 -39 -53 l -32 -50 l 53 102 q 89 164 145 261 q 159 258 168 258 q 182 258 204 261 q 165 198 86 61 l 41 -21 q 104 14 144 49 q 184 84 230 146 q 236 156 240 156 q 242 156 242 154 z m -36 -59 q -175 -130 -213 -156 q -315 -226 -315 -284 q -315 -300 -303 -310 q -292 -321 -274 -321 q -223 -321 -172 -264 q -130 -216 -42 -69 q -42 -69 -36 -59 z"},"i":{"x_min":0,"x_max":168,"ha":168,"o":"m 251 355 q 251 338 237 323 q 222 308 205 308 q 183 308 183 330 q 183 346 198 361 q 213 376 230 376 q 251 376 251 355 z m 258 153 q 257 151 253 145 l 232 116 q 140 -11 92 -11 q 69 -11 53 5 q 38 21 38 46 q 38 74 72 132 l 148 261 q 163 258 172 258 q 185 258 209 261 l 98 79 q 74 40 74 18 q 74 -4 97 -4 q 141 -4 250 151 q 252 156 255 156 q 258 156 258 153 z"},"y":{"x_min":0,"x_max":308,"ha":308,"o":"m 398 153 q 398 146 344 86 q 285 21 189 -32 l 165 -75 q 94 -202 17 -264 q -62 -328 -121 -328 q -141 -328 -155 -315 q -168 -303 -168 -284 q -168 -186 58 -81 q 77 -72 114 -55 l 121 -51 l 207 102 q 156 32 133 10 q 110 -11 87 -11 q 67 -11 52 6 q 37 23 37 46 q 37 74 72 133 l 147 260 q 158 258 173 258 q 186 258 208 261 l 112 105 q 71 39 71 18 q 71 -4 91 -4 q 144 -4 253 183 l 298 260 q 309 258 325 258 q 338 258 358 261 q 297 165 194 -21 q 253 10 294 46 q 335 82 386 147 q 393 156 395 156 q 398 156 398 153 z m 116 -59 q 108 -63 61 -87 q -161 -197 -161 -285 q -161 -322 -120 -322 q -68 -322 -17 -266 q 34 -209 110 -69 q 110 -69 116 -59 z"},"@":{"x_min":0,"x_max":680,"ha":680,"o":"m 812 257 q 794 200 748 157 q 745 108 711 69 q 628 -27 453 -27 q 340 -27 260 25 q 164 89 164 208 q 164 341 285 431 q 401 517 563 517 q 675 517 750 449 q 819 386 819 303 q 819 279 812 257 z m 792 312 q 792 391 732 449 q 666 512 561 512 q 407 512 300 426 q 191 338 191 207 q 191 99 278 35 q 354 -21 454 -21 q 624 -21 705 72 q 734 106 741 150 q 669 88 591 88 q 584 88 574 89 q 502 99 502 159 q 502 186 518 216 q 469 147 443 124 q 417 100 393 100 q 367 100 349 122 q 332 145 332 178 q 332 271 464 344 q 522 376 558 376 q 588 376 588 347 q 588 338 584 325 l 609 372 q 624 369 635 369 q 648 369 669 372 l 583 229 q 538 154 538 130 q 538 98 582 94 q 621 90 665 114 q 709 137 742 179 q 740 224 716 253 q 708 261 709 262 q 711 265 719 257 q 743 233 748 187 q 792 249 792 312 z m 581 345 q 581 369 559 369 q 514 369 441 281 q 368 193 368 139 q 368 107 396 107 q 430 107 513 219 q 581 311 581 345 z"},".":{"x_min":0,"x_max":223,"ha":223,"o":"m 170 57 q 170 35 150 15 q 130 -5 109 -5 q 88 -5 88 17 q 88 37 109 57 q 130 77 151 77 q 170 77 170 57 z"},"p":{"x_min":0,"x_max":265,"ha":265,"o":"m 323 187 q 323 107 224 42 q 144 -11 98 -11 q 67 -11 67 18 q 67 27 72 42 l -115 -270 q -132 -266 -143 -266 q -159 -266 -175 -272 l 226 387 q 239 383 252 383 q 265 383 284 387 l 139 153 q 191 222 215 244 q 239 265 262 265 q 288 265 306 243 q 323 220 323 187 z m 287 226 q 287 258 259 258 q 223 258 139 143 q 74 54 74 21 q 74 -4 97 -4 q 142 -4 215 84 q 287 171 287 226 z"},"X":{"x_min":0,"x_max":1004,"ha":1004,"o":"m 1298 576 q 1298 560 1289 540 q 1279 521 1271 521 q 1266 521 1266 526 q 1266 528 1274 536 q 1289 551 1289 575 q 1289 604 1266 623 q 1243 642 1208 642 q 1098 642 923 496 q 851 436 770 355 l 763 348 l 759 339 l 754 325 q 686 135 686 90 q 686 -11 779 -11 q 865 -11 963 90 q 1062 192 1062 271 q 1062 307 1040 329 q 1018 350 981 350 q 940 350 890 320 q 840 291 801 244 q 793 235 790 235 q 788 236 787 238 q 787 244 811 267 q 905 359 984 359 q 1023 359 1050 331 q 1077 302 1077 261 q 1077 168 975 74 q 873 -20 772 -20 q 715 -20 677 20 q 639 60 639 119 q 639 187 680 277 q 670 268 640 237 q 512 99 415 36 q 318 -26 232 -26 q 173 -26 135 2 q 96 30 96 74 q 96 99 109 115 q 123 132 142 132 q 175 132 175 100 q 175 85 165 73 q 155 62 142 62 q 121 62 119 85 q 118 96 114 96 q 107 96 107 75 q 107 36 140 10 q 173 -15 224 -15 q 371 -15 640 250 q 653 263 687 296 q 712 357 737 418 q 766 496 766 547 q 766 596 737 625 q 708 653 659 653 q 540 653 407 546 q 254 423 254 289 q 254 240 288 209 q 322 179 378 179 q 496 179 605 302 q 683 390 683 464 q 683 494 663 513 q 644 532 612 532 q 542 532 461 451 q 381 369 381 298 q 381 278 393 264 q 406 250 423 250 q 429 250 429 248 q 429 244 422 244 q 395 244 378 264 q 362 284 362 318 q 362 395 443 467 q 525 540 611 540 q 647 540 669 519 q 692 498 692 464 q 692 368 582 265 q 480 170 380 170 q 314 170 274 208 q 235 246 235 310 q 235 449 394 561 q 534 660 657 660 q 724 660 765 621 q 806 582 806 517 q 806 458 770 367 q 775 372 879 475 q 964 560 1049 609 q 1134 658 1196 658 q 1240 658 1269 635 q 1298 612 1298 576 z"},"*":{"x_min":0,"x_max":278,"ha":278,"o":"m 491 513 q 487 491 457 487 q 451 486 419 494 q 404 497 378 495 q 385 481 400 465 q 414 453 431 430 q 438 412 429 398 q 420 384 408 398 q 402 405 390 449 q 383 473 374 492 q 363 471 355 451 q 350 430 337 397 q 324 377 304 377 q 289 377 295 397 q 297 404 339 453 q 361 479 370 495 q 347 493 326 485 q 308 478 278 470 q 268 469 262 473 q 256 477 258 484 q 263 506 288 508 q 299 509 329 502 q 349 498 369 499 q 360 512 349 525 q 334 539 318 562 q 310 579 320 594 q 329 606 341 597 q 350 589 360 544 q 364 525 374 501 q 380 514 392 546 q 405 586 413 600 q 425 620 443 620 q 459 620 455 600 q 452 585 413 544 q 385 515 379 500 q 388 501 440 517 q 455 522 471 525 q 480 527 486 523 q 492 519 491 513 z"},"Y":{"x_min":0,"x_max":931,"ha":931,"o":"m 1208 543 q 1208 542 1204 539 q 1120 479 1048 378 q 979 279 894 97 q 821 -59 695 -153 q 570 -246 437 -246 q 371 -246 329 -216 q 286 -185 286 -137 q 286 -108 304 -88 q 321 -68 346 -68 q 378 -68 378 -98 q 378 -114 367 -126 q 356 -138 341 -138 q 315 -138 315 -114 q 315 -108 317 -103 q 318 -101 318 -97 q 318 -94 316 -94 q 309 -94 302 -108 q 296 -122 296 -137 q 296 -181 335 -209 q 374 -238 434 -238 q 515 -238 589 -194 q 662 -149 708 -90 q 754 -32 847 137 q 879 195 924 266 q 816 136 763 87 q 665 -5 602 -5 q 564 -5 541 23 q 517 51 517 96 q 517 142 543 190 q 570 238 654 345 q 762 482 762 569 q 762 683 624 683 q 470 683 316 543 q 252 485 210 406 q 167 327 167 266 q 167 208 201 173 q 235 138 292 138 q 394 138 486 234 q 597 349 597 447 q 597 481 578 503 q 558 524 526 524 q 455 524 376 436 q 297 348 297 268 q 297 217 346 217 l 348 217 q 353 217 353 214 q 353 210 341 210 q 314 210 297 232 q 280 255 280 291 q 280 375 360 453 q 440 532 525 532 q 562 532 584 509 q 606 486 606 447 q 606 359 516 253 q 411 129 293 129 q 227 129 187 173 q 147 218 147 291 q 147 437 300 559 q 376 620 464 655 q 551 691 624 691 q 701 691 746 648 q 790 604 790 529 q 790 469 763 412 q 735 355 655 251 q 585 161 567 129 q 548 97 548 66 q 548 5 606 5 q 660 5 736 72 q 812 138 935 295 q 1062 457 1192 543 l 1198 547 q 1202 549 1203 549 q 1208 549 1208 543 z"},"c":{"x_min":0,"x_max":242,"ha":242,"o":"m 333 153 q 333 146 264 71 q 189 -11 136 -11 q 102 -11 78 15 q 53 41 53 77 q 53 118 86 162 q 120 206 176 238 q 223 265 253 265 q 289 265 289 222 q 289 188 266 155 q 244 121 221 121 q 199 121 199 143 q 199 169 244 191 q 279 208 279 236 q 279 258 255 258 q 214 258 155 177 q 96 97 96 42 q 96 -4 139 -4 q 207 -4 322 148 q 328 156 331 156 q 333 155 333 153 z"},"!":{"x_min":0,"x_max":287,"ha":287,"o":"m 441 539 q 441 517 329 362 q 207 193 167 114 q 164 108 160 108 q 156 108 156 113 q 156 114 162 123 q 212 196 324 453 q 353 519 372 543 q 391 568 413 568 q 441 568 441 539 z m 161 57 q 161 35 141 15 q 121 -5 100 -5 q 79 -5 79 17 q 79 37 100 57 q 121 77 142 77 q 161 77 161 57 z"},"/":{"x_min":0,"x_max":529,"ha":529,"o":"m 710 726 l 185 -101 l 170 -101 l 695 726 z"},"[":{"x_min":0,"x_max":439,"ha":439,"o":"m 749 699 q 749 685 683 685 q 646 685 627 688 q 574 610 411 311 q 267 46 224 -62 q 259 -60 283 -61 q 312 -62 336 -68 q 357 -73 355 -77 q 354 -80 348 -80 q 347 -80 325 -77 q 303 -74 280 -74 q 181 -74 146 -79 q 198 9 364 316 q 477 524 566 706 q 599 699 672 697 q 697 696 729 700 q 749 702 749 699 z"},"6":{"x_min":0,"x_max":478,"ha":478,"o":"m 647 571 q 647 566 637 566 l 628 566 q 541 566 413 442 q 285 318 222 173 q 271 252 336 301 q 401 349 459 349 q 508 349 538 319 q 569 289 569 241 q 569 155 474 73 q 379 -10 279 -10 q 224 -10 192 25 q 159 61 159 120 q 159 208 232 305 q 305 402 436 489 q 489 524 549 550 q 610 576 638 576 q 647 576 647 571 z m 527 277 q 527 343 454 343 q 376 343 289 252 q 201 161 201 80 q 201 42 220 19 q 239 -4 271 -4 q 347 -4 437 95 q 527 194 527 277 z"},"r":{"x_min":0,"x_max":278,"ha":278,"o":"m 369 153 q 369 149 340 117 q 303 76 270 76 q 233 76 233 119 q 233 133 239 154 q 208 127 189 101 q 169 74 122 -7 q 96 -5 92 -5 q 90 -5 62 -7 l 142 123 q 202 221 202 244 q 202 258 191 258 q 164 258 92 153 q 87 146 84 146 q 82 146 82 149 q 83 151 84 153 l 93 165 q 168 265 195 265 q 234 265 234 215 q 234 177 194 115 q 219 145 242 163 q 261 207 288 236 q 316 265 338 265 q 353 265 353 252 q 353 229 285 185 q 274 178 253 165 l 247 160 q 240 138 240 123 q 240 82 271 82 q 309 82 354 145 q 364 156 366 156 q 369 156 369 153 z"},"2":{"x_min":0,"x_max":478,"ha":478,"o":"m 632 415 q 632 348 576 295 q 536 257 494 235 q 451 212 326 162 q 170 100 111 28 q 154 62 206 62 q 247 62 314 41 q 372 23 402 23 q 443 23 479 57 q 514 90 527 142 q 528 148 532 148 q 534 147 534 146 q 534 118 501 72 q 440 -13 349 -13 q 315 -13 249 7 q 169 31 148 31 q 97 31 92 -10 q 91 -21 85 -21 q 81 -21 81 -17 q 81 6 120 46 q 154 81 188 103 q 226 125 323 171 q 446 229 515 303 q 585 378 585 452 q 585 483 562 501 q 540 519 501 519 q 415 519 315 431 q 215 343 215 267 q 215 212 281 212 q 333 212 398 263 q 463 315 487 375 q 488 380 491 380 q 494 380 494 377 q 494 356 452 306 q 416 263 368 235 q 320 207 282 207 q 245 207 222 229 q 199 252 199 289 q 199 380 320 460 q 418 525 503 525 q 560 525 596 494 q 632 464 632 415 z"},"{":{"x_min":0,"x_max":439,"ha":439,"o":"m 709 702 q 709 696 691 695 q 610 689 572 645 q 534 601 490 467 q 444 326 276 304 q 278 304 286 303 q 354 298 354 260 q 354 223 289 111 q 227 4 227 -26 q 227 -63 292 -62 q 321 -62 321 -65 q 321 -74 296 -74 q 231 -74 217 -71 q 168 -62 168 -24 q 168 4 187 45 q 205 86 262 183 q 302 251 302 270 q 302 298 261 298 q 254 298 254 302 q 254 308 272 310 q 334 319 365 354 q 395 389 438 501 q 469 582 502 623 q 534 662 585 685 q 634 707 690 707 q 709 707 709 702 z"},"9":{"x_min":0,"x_max":478,"ha":478,"o":"m 612 400 q 612 317 537 221 q 462 125 334 43 q 277 7 214 -19 q 150 -44 117 -44 q 109 -44 109 -39 q 109 -32 121 -32 l 128 -32 q 216 -32 348 86 q 479 204 543 340 q 495 269 425 222 q 355 175 297 175 q 250 175 222 203 q 194 232 194 280 q 194 367 294 445 q 342 483 399 507 q 457 531 497 531 q 548 531 580 495 q 612 458 612 400 z m 570 442 q 570 525 498 525 q 423 525 329 425 q 235 325 235 245 q 235 182 302 182 q 346 182 407 218 q 468 254 512 307 q 570 375 570 442 z"}," ":{"x_min":0,"x_max":177,"ha":177,"o":""},"I":{"x_min":0,"x_max":638,"ha":638,"o":"m 1017 646 q 1017 638 977 620 q 937 602 885 588 q 763 501 644 278 l 636 263 q 642 262 650 262 q 709 262 760 299 q 810 335 821 387 q 823 395 826 395 q 829 395 829 391 q 829 361 797 323 q 739 254 648 254 q 639 254 631 255 l 617 228 q 582 160 554 126 q 529 95 485 64 q 362 -23 234 -23 q 162 -23 115 7 q 69 38 69 85 q 69 110 83 128 q 98 146 118 146 q 150 146 150 113 q 150 97 139 85 q 129 74 114 74 q 91 74 91 96 l 91 106 q 91 110 88 111 q 79 111 79 86 q 79 44 120 15 q 161 -13 222 -13 q 369 -13 487 134 q 521 177 580 268 q 497 304 497 385 q 497 482 607 530 q 663 554 782 574 l 836 583 l 882 593 q 908 612 950 632 q 993 651 1009 651 q 1017 651 1017 646 z m 870 584 q 859 582 837 576 q 819 571 784 563 q 665 535 594 480 q 524 425 524 361 q 524 299 584 274 q 713 480 870 584 z"},"H":{"x_min":0,"x_max":863,"ha":863,"o":"m 1365 525 q 1365 447 1271 394 q 1230 371 1215 371 q 1211 371 1211 375 q 1211 377 1225 383 q 1280 404 1314 444 q 1349 484 1349 526 q 1349 565 1322 589 q 1295 614 1252 614 q 1112 614 1002 453 q 983 425 886 239 q 781 38 639 -8 q 682 -13 706 -13 q 795 -13 857 45 q 911 95 954 161 q 959 168 962 168 q 964 167 964 166 q 964 161 918 102 q 864 32 819 6 q 773 -20 708 -20 q 667 -20 620 -13 q 584 -23 554 -23 q 529 -23 529 -12 q 529 0 569 0 q 591 0 625 -6 q 689 22 723 64 q 759 109 831 252 l 839 268 l 649 268 q 603 183 569 142 q 536 101 479 62 q 354 -23 239 -23 q 171 -23 129 6 q 87 34 87 80 q 87 104 101 122 q 116 139 136 139 q 168 139 168 107 q 168 91 158 80 q 148 69 134 69 q 111 69 111 92 q 112 104 108 104 q 99 104 99 78 q 99 38 137 12 q 174 -13 233 -13 q 336 -13 413 48 q 491 109 589 268 l 439 268 l 443 278 l 595 278 q 601 288 615 309 q 718 475 808 541 q 827 555 859 572 q 891 588 898 588 q 901 587 901 584 q 901 581 891 577 q 831 553 784 493 q 736 434 654 278 l 844 278 q 936 441 1043 531 q 1150 622 1252 622 q 1302 622 1334 595 q 1365 568 1365 525 z m 732 513 q 732 503 703 472 q 660 426 621 426 q 593 426 575 446 q 556 465 556 494 q 556 521 576 561 q 601 611 601 630 q 601 655 578 670 q 554 685 516 685 q 407 685 312 597 q 216 510 216 410 q 216 359 247 326 q 278 294 328 294 q 424 294 490 383 q 491 386 493 386 q 497 386 497 382 q 497 372 466 344 q 401 286 326 286 q 273 286 240 320 q 207 354 207 409 q 207 515 305 604 q 403 693 519 693 q 621 693 621 603 q 621 572 600 529 q 579 486 579 472 q 579 435 619 435 q 644 435 675 458 q 706 481 723 512 q 726 517 728 517 q 732 517 732 513 z"},"4":{"x_min":0,"x_max":478,"ha":478,"o":"m 782 570 q 782 566 778 566 q 776 566 773 567 q 750 575 729 575 q 602 575 403 369 q 305 268 259 229 q 213 190 152 158 q 209 173 303 173 q 338 173 361 171 q 388 212 477 335 q 554 441 573 481 q 576 487 579 487 q 581 486 581 485 q 581 484 580 482 l 575 472 q 569 460 505 345 q 443 233 412 168 q 442 166 468 166 q 519 166 551 188 q 583 211 583 246 q 583 259 576 274 q 575 276 575 279 q 575 282 578 282 q 589 282 589 246 q 589 148 402 148 q 359 55 350 -2 q 332 4 314 4 q 292 4 265 -2 q 291 68 346 148 q 335 148 294 152 q 236 158 209 158 q 182 158 149 154 q 91 117 56 117 q 48 117 48 122 q 48 139 142 158 q 209 198 254 237 q 297 273 398 377 q 601 585 729 585 q 747 585 765 580 q 782 575 782 570 z"},"~":{"x_min":0,"x_max":667,"ha":667,"o":"m 799 698 q 746 605 675 605 q 638 605 537 659 q 481 689 446 689 q 390 689 341 603 l 324 614 q 379 707 448 707 q 487 707 567 663 q 640 623 674 623 q 732 623 783 708 z"},"D":{"x_min":0,"x_max":847,"ha":847,"o":"m 1254 502 q 1254 477 1248 449 q 1242 422 1237 422 q 1234 422 1234 425 q 1234 428 1235 431 q 1246 461 1246 501 q 1246 562 1209 600 q 1171 637 1110 637 q 992 637 881 525 q 923 447 923 360 q 923 200 800 88 q 677 -23 500 -23 q 445 -23 350 -8 q 268 -23 192 -23 q 63 -23 63 3 q 63 16 94 25 q 126 35 168 35 q 219 35 370 2 q 472 29 531 86 q 588 143 706 331 q 777 445 863 526 q 792 646 632 646 q 467 646 329 516 q 260 451 218 372 q 177 292 177 226 q 177 173 210 142 q 244 110 299 110 q 392 110 492 210 q 593 311 593 404 q 593 439 573 460 q 554 482 522 482 q 486 482 486 470 q 486 467 491 467 q 494 467 496 468 l 503 468 q 527 468 527 446 q 527 430 515 418 q 502 406 486 406 q 456 406 456 438 q 456 460 476 476 q 495 491 523 491 q 559 491 581 468 q 603 444 603 406 q 603 307 500 204 q 397 101 299 101 q 231 101 187 146 q 143 191 143 262 q 143 414 293 534 q 443 655 632 655 q 792 655 874 536 q 993 646 1116 646 q 1178 646 1216 606 q 1254 566 1254 502 z m 896 396 q 896 458 870 513 q 804 438 752 324 q 683 173 609 107 q 533 39 386 -2 q 448 -15 518 -15 q 705 -15 821 166 q 896 283 896 396 z m 333 -5 q 198 14 132 14 q 73 14 73 3 q 73 -14 201 -14 q 274 -14 333 -5 z"},"^":{"x_min":0,"x_max":500,"ha":500,"o":"m 611 291 q 602 291 587 313 q 556 359 526 431 q 465 391 350 340 q 234 289 204 289 q 198 289 198 294 q 201 297 212 302 q 318 347 424 415 q 532 483 572 533 q 571 518 571 503 q 571 397 609 303 q 614 291 611 291 z"},"0":{"x_min":0,"x_max":478,"ha":478,"o":"m 631 386 q 631 274 519 148 q 383 -6 267 -6 q 208 -6 171 36 q 134 78 134 143 q 134 274 295 410 q 434 527 517 527 q 569 527 600 488 q 631 450 631 386 z m 595 440 q 595 520 518 520 q 455 520 373 446 q 294 375 238 276 q 179 172 179 93 q 179 1 266 1 q 374 1 482 151 q 533 222 564 301 q 595 380 595 440 z"},"F":{"x_min":0,"x_max":660,"ha":660,"o":"m 1240 570 q 1240 546 1192 529 q 1145 512 1077 512 q 989 512 862 539 q 800 510 748 450 q 696 390 635 278 q 665 273 685 270 q 712 333 763 333 q 798 333 798 306 q 798 285 775 271 q 751 258 714 258 l 704 258 q 703 256 692 232 q 680 204 657 184 q 634 164 614 164 q 607 164 607 167 q 607 169 612 171 q 646 181 680 261 q 666 263 639 267 l 630 269 q 623 257 610 233 q 568 158 542 125 q 516 93 471 62 q 353 -21 227 -21 q 153 -21 105 10 q 58 41 58 90 q 58 114 73 132 q 87 149 107 149 q 139 149 139 116 q 139 101 129 90 q 119 79 105 79 q 81 79 81 102 q 83 114 78 114 q 69 114 69 88 q 69 47 112 18 q 154 -11 215 -11 q 310 -11 386 46 q 462 103 553 242 q 561 253 576 277 l 567 277 q 512 277 491 235 q 489 228 486 228 q 482 228 482 232 q 482 251 510 269 q 537 286 568 286 l 582 286 q 710 479 850 542 q 812 550 772 561 q 641 595 569 595 q 554 595 541 594 q 562 554 562 503 q 562 396 479 302 q 396 208 301 208 q 261 208 236 233 q 211 258 211 299 q 211 391 307 486 q 403 580 521 605 q 484 660 407 660 q 282 660 180 538 q 172 530 171 530 q 168 530 167 533 q 167 542 208 580 q 303 668 404 668 q 494 668 534 607 q 586 620 655 620 q 698 620 735 613 q 771 606 911 573 q 1020 615 1115 615 q 1171 615 1206 603 q 1240 590 1240 570 z m 1231 569 q 1231 584 1199 595 q 1167 606 1122 606 q 1016 606 927 569 l 992 554 q 1074 535 1143 535 q 1178 535 1205 545 q 1231 556 1231 569 z m 789 305 q 789 326 765 326 q 733 326 711 276 l 707 267 l 719 267 q 750 267 769 278 q 789 289 789 305 z m 544 526 q 544 559 528 592 q 416 578 317 485 q 219 392 219 300 q 219 266 241 242 q 263 218 295 218 q 380 218 462 320 q 544 421 544 526 z"},"`":{"x_min":0,"x_max":500,"ha":500,"o":"m 437 312 q 437 310 434 310 q 422 310 402 346 q 382 382 372 423 l 414 452 q 406 428 406 405 q 406 354 433 318 q 437 314 437 312 z"},"k":{"x_min":0,"x_max":301,"ha":301,"o":"m 350 499 q 346 492 338 479 q 325 458 300 418 q 288 397 262 355 l 178 219 q 136 151 107 96 q 74 35 54 1 l 48 -9 q 35 -6 22 -6 q 11 -6 -10 -9 q 1 10 15 34 l 72 133 q 84 155 110 199 l 289 499 q 309 495 319 495 q 329 495 350 499 z m 392 153 q 392 151 387 145 l 366 116 q 274 -11 227 -11 q 206 -11 190 3 q 174 17 174 35 q 174 51 201 105 l 202 107 q 211 125 211 134 q 211 145 195 154 q 176 146 164 146 q 147 146 147 156 q 147 164 163 164 q 179 164 192 159 q 216 170 270 232 q 299 265 329 265 q 366 265 366 230 q 366 207 347 183 q 329 160 310 160 q 289 160 289 179 q 289 197 321 217 q 334 225 334 240 q 334 252 319 252 q 298 252 266 215 q 226 168 200 157 q 251 134 251 103 q 251 86 227 37 q 217 17 217 9 q 217 -4 233 -4 q 279 -4 383 151 q 386 156 389 156 q 392 156 392 153 z"},"u":{"x_min":0,"x_max":313,"ha":313,"o":"m 404 153 q 404 142 333 58 q 274 -11 240 -11 q 219 -11 204 6 q 189 23 189 48 q 189 67 208 101 l 198 88 q 153 30 132 11 q 109 -11 89 -11 q 67 -11 53 6 q 38 22 38 47 q 38 75 60 112 l 149 261 q 166 258 175 258 q 184 258 208 261 l 92 70 q 74 41 74 18 q 74 -4 93 -4 q 142 -4 251 180 l 299 261 q 314 258 324 258 q 336 258 359 261 l 281 134 q 225 43 225 17 q 225 -4 245 -4 q 284 -4 372 119 l 387 140 l 396 151 q 398 156 401 156 q 404 156 404 153 z"},"]":{"x_min":0,"x_max":439,"ha":439,"o":"m 693 703 q 642 615 475 308 q 362 100 273 -82 q 240 -75 167 -73 q 143 -72 110 -76 q 90 -78 90 -75 q 90 -61 156 -61 q 192 -61 212 -64 q 266 14 428 313 q 572 578 615 686 q 581 684 556 685 q 527 686 503 692 q 482 697 484 701 q 485 704 491 704 q 492 704 514 701 q 537 698 559 698 q 658 698 693 703 z"},"U":{"x_min":0,"x_max":901,"ha":901,"o":"m 1154 604 q 815 139 815 4 q 815 -29 837 -51 q 858 -72 892 -72 q 950 -72 1006 -10 q 1011 -5 1013 -5 q 1016 -5 1016 -9 q 1016 -14 999 -29 q 941 -80 892 -80 q 846 -80 815 -44 q 784 -8 784 47 q 784 141 880 293 q 875 286 865 273 l 842 241 q 753 118 672 48 q 591 -22 537 -22 q 502 -22 480 3 q 459 29 459 71 q 459 115 483 159 q 506 203 589 311 q 675 424 699 468 q 722 512 722 562 q 722 608 688 636 q 653 663 594 663 q 445 663 307 527 q 169 391 169 244 q 169 189 200 156 q 231 122 282 122 q 379 122 469 233 q 563 349 563 445 q 563 526 494 526 q 477 526 462 518 q 447 510 447 501 q 447 497 451 497 q 454 498 460 500 q 462 501 467 501 q 492 501 492 477 q 492 461 480 450 q 469 438 453 438 q 423 438 423 470 q 423 497 445 516 q 466 535 496 535 q 531 535 551 511 q 572 486 572 445 q 572 349 480 232 q 387 113 282 113 q 221 113 183 155 q 146 197 146 267 q 146 427 314 559 q 379 610 456 641 q 532 672 593 672 q 667 672 708 632 q 749 592 749 521 q 749 460 719 406 q 689 352 571 195 q 519 126 503 97 q 487 67 487 41 q 487 17 502 1 q 517 -14 539 -14 q 612 -14 742 133 q 871 281 1078 601 q 1104 599 1107 599 q 1125 599 1154 604 z"},"o":{"x_min":0,"x_max":290,"ha":290,"o":"m 380 154 q 380 146 351 117 q 308 74 272 74 q 257 74 245 80 q 181 -11 124 -11 q 95 -11 74 13 q 53 37 53 71 q 53 146 152 216 q 221 265 266 265 q 308 265 308 220 q 308 164 249 85 q 259 79 271 79 q 293 79 322 100 q 352 120 370 149 q 375 156 378 156 q 380 156 380 154 z m 301 219 q 301 259 265 259 q 221 259 157 174 q 93 89 93 31 q 93 -3 125 -3 q 178 -3 240 84 q 226 100 226 116 q 226 140 245 166 q 264 191 282 191 q 290 191 293 181 q 301 198 301 219 z"},"N":{"x_min":0,"x_max":871,"ha":871,"o":"m 1512 481 q 1512 440 1503 440 q 1499 440 1499 443 q 1499 448 1501 460 q 1503 472 1503 478 q 1503 545 1455 589 q 1407 632 1333 632 q 1186 632 1037 441 q 990 381 855 154 q 816 88 775 36 q 733 -15 720 -15 q 713 -15 713 -8 q 713 1 735 12 q 778 32 778 112 q 778 127 776 162 q 771 249 771 312 q 771 417 791 485 q 812 552 859 604 q 860 605 861 608 q 846 610 794 546 q 767 512 745 476 q 723 440 632 275 q 554 134 450 57 q 346 -20 233 -20 q 169 -20 128 8 q 87 37 87 81 q 87 106 102 124 q 116 141 138 141 q 170 141 170 110 q 170 94 160 82 q 149 71 135 71 q 111 71 111 97 q 111 107 107 107 q 99 107 99 80 q 99 40 137 14 q 176 -11 235 -11 q 348 -11 445 74 q 542 160 667 370 q 769 542 830 595 q 872 632 884 632 q 886 631 886 630 q 886 629 880 621 q 849 580 841 533 q 833 486 830 334 q 826 148 784 68 q 783 68 783 66 l 784 65 q 793 65 932 310 q 1034 489 1128 569 q 1223 649 1332 649 q 1410 649 1461 601 q 1512 554 1512 481 z m 730 515 q 730 504 702 473 q 660 426 621 426 q 594 426 576 446 q 557 465 557 494 q 557 522 577 561 q 602 610 602 630 q 602 655 579 670 q 555 685 517 685 q 408 685 312 597 q 217 509 217 410 q 217 359 248 326 q 280 294 329 294 q 373 294 418 319 q 463 344 491 384 q 493 386 494 386 q 498 386 498 382 q 498 372 467 344 q 402 286 327 286 q 274 286 241 320 q 208 354 208 409 q 208 515 306 604 q 404 693 520 693 q 568 693 595 669 q 622 645 622 603 q 622 572 591 508 q 580 485 580 472 q 580 435 620 435 q 644 435 674 458 q 703 481 721 514 q 724 519 726 519 q 730 519 730 515 z"},"+":{"x_min":0,"x_max":523,"ha":523,"o":"m 635 258 q 633 249 605 249 l 414 249 l 332 73 q 322 52 316 52 q 314 52 313 53 q 304 57 314 77 l 395 249 l 193 249 q 176 249 178 258 q 180 267 208 267 l 403 267 l 484 441 q 496 466 503 463 q 513 459 503 439 q 476 381 422 267 l 618 267 q 637 267 635 258 z"},"G":{"x_min":0,"x_max":734,"ha":734,"o":"m 911 452 q 911 440 873 395 q 835 351 797 318 q 762 262 746 226 q 730 189 706 111 q 676 15 633 -41 q 589 -97 510 -141 q 396 -204 278 -204 q 177 -204 115 -149 q 53 -95 53 -6 q 53 70 100 138 q 147 206 228 248 q 310 290 379 290 q 385 290 389 289 q 389 301 396 332 q 387 331 375 331 q 296 331 250 366 q 203 400 203 458 q 203 558 316 635 q 429 712 575 712 q 691 712 765 654 q 816 673 841 673 q 888 673 888 634 q 888 598 833 544 q 837 517 837 499 q 837 446 806 386 q 797 368 793 368 q 791 368 790 371 q 791 374 792 376 q 828 436 828 501 q 828 521 826 538 q 745 466 644 413 q 544 359 453 339 q 438 313 429 286 q 558 264 558 146 l 558 136 q 655 163 797 329 q 829 379 862 417 q 895 455 907 455 q 910 455 911 452 z m 879 633 q 879 665 842 665 q 813 665 774 646 q 816 610 831 553 q 879 600 879 633 z m 824 547 q 812 605 766 643 q 679 600 592 517 q 506 434 458 348 q 545 369 645 423 q 745 477 824 547 z m 756 651 q 691 702 577 702 q 440 702 326 626 q 212 550 212 459 q 212 403 257 371 q 302 340 382 340 l 399 340 q 456 527 756 651 z m 550 134 q 553 192 521 230 q 489 268 428 278 q 421 253 421 228 q 421 185 449 158 q 477 132 523 132 q 537 132 550 134 z m 780 298 q 648 152 556 127 q 546 60 493 5 q 440 -50 386 -50 q 357 -50 338 -32 q 319 -15 319 11 q 319 38 337 60 q 355 81 378 81 q 412 81 412 50 q 412 36 401 24 q 390 13 376 13 q 350 13 350 36 q 350 40 352 47 q 353 51 353 54 q 353 57 350 57 q 343 57 335 41 q 328 25 328 11 q 328 -12 345 -27 q 361 -42 386 -42 q 436 -42 489 12 q 541 66 548 125 q 537 123 523 123 q 460 123 424 165 q 388 208 388 280 q 265 272 173 177 q 81 83 81 -35 q 81 -106 134 -150 q 186 -194 271 -194 q 386 -194 480 -112 q 575 -31 699 177 q 737 241 780 298 z"},"q":{"x_min":0,"x_max":289,"ha":289,"o":"m 386 262 q 340 184 229 3 q 170 -96 92 -226 q 83 -239 67 -266 q 51 -262 36 -262 q 20 -262 5 -266 l 234 101 q 232 98 215 76 q 150 -11 110 -11 q 84 -11 67 11 q 50 34 50 67 q 50 146 150 212 q 229 265 276 265 q 306 265 306 236 q 306 226 299 208 l 328 261 q 337 259 351 259 q 362 259 386 262 z m 299 234 q 299 258 277 258 q 233 258 160 170 q 87 82 87 28 q 87 -4 115 -4 q 149 -4 231 106 q 299 198 299 234 z"},"d":{"x_min":0,"x_max":344,"ha":344,"o":"m 534 494 q 351 203 303 122 q 255 40 255 18 q 255 -4 275 -4 q 319 -4 426 151 q 429 156 431 156 q 434 156 434 153 q 434 151 429 145 l 408 116 q 316 -11 272 -11 q 250 -11 235 6 q 221 22 221 49 q 221 75 239 110 q 153 -11 112 -11 q 86 -11 68 11 q 51 33 51 67 q 51 147 151 213 q 230 265 276 265 q 306 265 306 236 q 306 222 298 205 l 472 497 q 488 492 504 492 q 508 492 534 494 z m 299 232 q 299 258 275 258 q 231 258 159 170 q 87 83 87 29 q 87 -4 114 -4 q 153 -4 248 132 q 299 205 299 232 z"},"1":{"x_min":0,"x_max":478,"ha":478,"o":"m 610 507 q 610 502 499 331 q 410 194 376 129 q 342 63 325 -3 q 308 1 295 1 q 281 1 242 -5 q 275 92 445 297 q 549 422 583 476 q 456 326 328 228 q 246 165 229 165 q 225 165 225 168 q 225 171 231 174 q 355 230 591 492 l 597 499 q 606 509 608 509 q 610 509 610 507 z"},"5":{"x_min":0,"x_max":478,"ha":478,"o":"m 638 537 q 638 506 610 483 q 582 459 546 459 q 519 459 488 470 q 440 487 419 487 q 391 487 378 453 q 350 378 306 318 q 347 337 388 337 q 454 337 498 300 q 542 262 542 206 q 542 124 450 57 q 358 -9 242 -9 q 181 -9 143 19 q 104 46 104 90 q 104 140 154 174 q 204 208 277 208 q 319 208 319 202 q 318 200 316 200 q 310 200 299 201 q 287 202 281 202 q 216 202 174 168 q 132 134 132 82 q 132 43 159 21 q 187 -2 234 -2 q 323 -2 408 73 q 492 147 492 226 q 492 272 461 300 q 430 328 377 328 q 342 328 300 312 q 249 246 229 246 q 223 246 223 251 q 223 271 295 312 q 381 427 381 510 q 381 519 380 523 q 379 525 379 528 q 379 534 385 534 q 391 534 391 518 q 391 503 385 478 q 413 526 458 526 q 476 526 552 500 q 579 491 593 491 q 608 491 619 502 q 631 513 631 528 q 631 532 629 537 q 627 542 627 544 q 627 550 632 550 q 638 550 638 537 z"}}}
